<?xml version="1.0" encoding="iso-8859-1"?>
<!-- Generator: Adobe Illustrator 16.0.4, SVG Export Plug-In . SVG Version: 6.00 Build 0)  -->
<!DOCTYPE svg PUBLIC "-//W3C//DTD SVG 1.1//EN" "http://www.w3.org/Graphics/SVG/1.1/DTD/svg11.dtd">
<svg version="1.1" id="&#x30EC;&#x30A4;&#x30E4;&#x30FC;_1"
	 xmlns="http://www.w3.org/2000/svg" xmlns:xlink="http://www.w3.org/1999/xlink" x="0px" y="0px" width="360px" height="120px"
	 viewBox="0 0 360 120" style="enable-background:new 0 0 360 120;" xml:space="preserve">
<g>
	<path style="fill:#444444;" d="M193.568,54.629c0.123-2.414,0.49-3.608,1.562-5.105c1.351-1.854,3.411-2.875,5.802-2.875
		c2.506,0,4.744,1.169,6.3,3.289c1.029,1.403,1.414,2.452,1.793,4.88l0.242,1.549h5.18l-0.161-1.979
		c-0.53-6.507-2.229-9.638-5.829-14.186c-3.971-5.078-9.627-8.934-16.342-11.147c-2.604-0.881-5.043-1.338-9.492-1.734l-0.079-2.191
		h-5.163l-0.075,2.188c-7.56,0.678-11.706,1.956-16.98,5.114c-6.942,4.117-11.81,10.268-13.706,17.321
		c-0.117,0.434-0.217,0.765-0.304,1.052c-0.319,1.056-0.492,1.696-0.605,3.625l-0.113,1.938h5.122l0.253-1.534
		c0.44-2.674,0.938-3.89,2.19-5.391c1.594-1.828,3.636-2.794,5.903-2.794c2.583,0,4.798,1.202,6.082,3.308
		c0.833,1.346,1.152,2.254,1.283,4.679l0.094,1.732h5.037l0.083-1.742c0.117-2.419,0.658-3.82,2.088-5.377
		c0.941-1.064,1.873-1.714,3.166-2.157v37.411c0,2.887,0.791,4.942,2.372,6.165c1.499,1.202,3.404,1.801,5.714,1.801h2.828v-6.216
		h-2.195c-1.587,0-2.38-0.752-2.38-2.257V47.197c1.1,0.405,1.959,0.988,2.842,1.873c1.523,1.653,2.098,3.065,2.276,5.595l0.12,1.702
		h5.004L193.568,54.629z"/>
	<path style="fill:#444444;" d="M25.811,79.165c0,2.225-0.588,3.96-1.766,5.21c-1.155,1.252-2.647,1.877-4.472,1.877
		c-1.827,0-3.327-0.625-4.504-1.877c-1.197-1.25-1.795-2.985-1.795-5.21V59.524H6.936v21.922c0.04,3.715,1.206,6.524,3.496,8.425
		c2.106,1.943,4.468,2.936,7.082,2.979c3.363,0,6.089-1.302,8.177-3.903h0.121v3.521h6.338V59.524h-6.338V79.165z"/>
	<path style="fill:#444444;" d="M81.104,62.001c-2.24-1.927-4.711-2.889-7.413-2.889c-4.293-0.042-7.717,1.396-10.271,4.315
		c-1.131-1.27-2.377-2.315-3.739-3.141c-1.382-0.741-3.204-1.132-5.465-1.175c-3.518,0-6.356,1.3-8.512,3.902h-0.122v-3.49h-6.35
		v32.943h6.344V72.829c0-2.308,0.639-4.067,1.918-5.274c1.214-1.23,2.779-1.844,4.696-1.844c1.919,0,3.495,0.613,4.73,1.844
		c1.215,1.207,1.822,2.967,1.822,5.274v19.639h6.339V72.829c0-2.308,0.627-4.067,1.885-5.274c1.235-1.23,2.812-1.844,4.729-1.844
		c1.917,0,3.482,0.613,4.698,1.844c1.214,1.207,1.822,2.967,1.822,5.274v19.639h6.344V70.569
		C84.476,66.804,83.324,63.947,81.104,62.001z"/>
	<path style="fill:#444444;" d="M113.986,63.428c-1.785-2.771-4.612-4.21-8.484-4.315c-1.622,0-3.07,0.349-4.347,1.048
		c-1.379,0.739-2.646,1.693-3.801,2.854V49.856h-6.339v42.611h6.339v-3.438c2.106,2.464,4.823,3.737,8.146,3.82
		c1.966-0.043,3.647-0.456,5.045-1.237c1.418-0.762,2.563-1.776,3.435-3.048c0.872-1.035,1.469-2.444,1.794-4.221
		c0.303-1.692,0.456-4.485,0.456-8.379c0-3.956-0.151-6.77-0.456-8.443C115.452,65.83,114.855,64.465,113.986,63.428z
		 M109.83,79.628c-0.142,1.251-0.417,2.377-0.822,3.376c-0.365,0.954-0.983,1.74-1.856,2.355c-0.873,0.595-2.059,0.893-3.56,0.893
		c-1.42,0-2.547-0.319-3.378-0.956c-0.873-0.616-1.511-1.422-1.917-2.421c-0.386-0.996-0.639-2.113-0.761-3.343
		c-0.121-1.211-0.182-2.399-0.182-3.567c0-1.273,0.061-2.494,0.182-3.662c0.122-1.166,0.375-2.251,0.761-3.248
		c0.406-0.999,1.044-1.805,1.917-2.42c0.831-0.616,1.958-0.924,3.378-0.924c1.501,0,2.687,0.266,3.56,0.794
		c0.873,0.575,1.491,1.359,1.856,2.359c0.405,0.996,0.68,2.081,0.822,3.247c0.041,1.252,0.061,2.538,0.061,3.854
		C109.891,77.217,109.871,78.438,109.83,79.628z"/>
	<path style="fill:#444444;" d="M128.878,63.015h-0.132v-3.49h-6.338v32.943h6.338v-19.86c0.04-2.415,0.71-4.163,2.01-5.243
		c1.158-1.102,2.548-1.653,4.173-1.653c1.441,0,2.832,0.552,4.172,1.656l4.629-5.727c-1.887-1.642-4.097-2.486-6.635-2.528
		C133.707,59.112,130.969,60.413,128.878,63.015z"/>
	<path style="fill:#444444;" d="M158.177,59.112c-1.5,0-3.021,0.286-4.562,0.857c-1.561,0.57-2.97,1.502-4.227,2.792
		c-1.237,1.269-2.251,3.005-3.042,5.206c-0.791,2.157-1.185,4.866-1.185,8.124c0,3.385,0.456,6.138,1.369,8.252
		c0.831,2.201,1.915,3.915,3.254,5.142c0.689,0.593,1.429,1.089,2.22,1.492c0.75,0.465,1.521,0.834,2.311,1.111
		c1.583,0.508,3.204,0.761,4.867,0.761c4.359,0.043,8.15-1.733,11.374-5.329l-4.596-4.097c-2.03,2.139-4.333,3.21-6.91,3.21
		c-2.213,0-3.999-0.701-5.358-2.1c-1.461-1.375-2.191-3.386-2.191-6.032h19.692v-5.453c-0.04-4.34-1.328-7.747-3.861-10.222
		C164.836,60.392,161.786,59.155,158.177,59.112z M151.5,73.049c0.121-2.573,0.782-4.519,1.981-5.838
		c1.22-1.254,2.785-1.881,4.695-1.881c1.911,0,3.475,0.627,4.696,1.881c1.239,1.319,1.899,3.265,1.982,5.838H151.5z"/>
	<path style="fill:#444444;" d="M197.827,83.995V59.112h-6.339v25.39c0,2.887,0.79,4.942,2.371,6.165
		c1.5,1.202,3.405,1.801,5.716,1.801h2.828v-6.216h-2.197C198.62,86.252,197.827,85.5,197.827,83.995z"/>
	<path style="fill:#444444;" d="M227.955,61.46c-2.37-1.608-5.541-2.39-9.512-2.348c-4.702-0.085-8.259,1.513-10.671,4.796
		l4.99,3.974c0.547-0.956,1.297-1.638,2.251-2.041c0.912-0.342,2.159-0.511,3.741-0.511c4.361-0.086,6.521,1.328,6.479,4.241v3.478
		h-8.787c-3.364,0.043-5.92,0.994-7.663,2.854c-1.743,1.818-2.614,4.115-2.614,6.886c0,2.899,1.004,5.279,3.01,7.142
		c1.905,1.902,4.621,2.876,8.149,2.919c2.147,0,3.83-0.274,5.047-0.825c1.236-0.526,2.148-1.354,2.737-2.476h0.121v2.919h6.339
		V69.966C231.532,65.947,230.327,63.109,227.955,61.46z M225.234,80.884c0,2.478-0.498,4.066-1.494,4.765
		c-1.097,0.698-2.976,1.025-5.637,0.985c-2.112,0-3.625-0.435-4.54-1.306c-0.954-0.781-1.432-1.735-1.432-2.856
		c-0.043-2.562,1.786-3.887,5.484-3.97h7.618V80.884z"/>
	<path style="fill:#444444;" d="M252.198,59.112c-3.384,0-6.118,1.3-8.206,3.902h-0.122V49.856h-6.339v42.611h6.339V72.829
		c0-2.308,0.6-4.067,1.797-5.274c1.176-1.23,2.677-1.844,4.502-1.844c1.827,0,3.317,0.613,4.474,1.844
		c1.177,1.207,1.766,2.967,1.766,5.274v19.639h6.338V70.569c-0.102-3.766-1.226-6.622-3.374-8.568
		C257.204,60.074,254.813,59.112,252.198,59.112z"/>
	<path style="fill:#444444;" d="M280.246,59.112c-1.501,0-3.021,0.286-4.562,0.857c-1.562,0.57-2.97,1.502-4.227,2.792
		c-1.237,1.269-2.251,3.005-3.041,5.206c-0.791,2.157-1.187,4.866-1.187,8.124c0,3.385,0.457,6.138,1.369,8.252
		c0.831,2.201,1.915,3.915,3.255,5.142c0.688,0.593,1.428,1.089,2.22,1.492c0.75,0.465,1.52,0.834,2.31,1.111
		c1.582,0.508,3.204,0.761,4.867,0.761c4.358,0.043,8.15-1.733,11.375-5.329l-4.598-4.097c-2.029,2.139-4.333,3.21-6.909,3.21
		c-2.213,0-3.999-0.701-5.358-2.1c-1.462-1.375-2.19-3.386-2.19-6.032h19.691v-5.453c-0.04-4.34-1.328-7.747-3.861-10.222
		C286.906,60.392,283.854,59.155,280.246,59.112z M273.57,73.049c0.12-2.573,0.781-4.519,1.98-5.838
		c1.22-1.254,2.784-1.881,4.695-1.881s3.476,0.627,4.695,1.881c1.24,1.319,1.9,3.265,1.982,5.838H273.57z"/>
	<path style="fill:#444444;" d="M318.273,61.46c-2.371-1.608-5.542-2.39-9.514-2.348c-4.701-0.085-8.258,1.513-10.669,4.796
		l4.989,3.974c0.548-0.956,1.297-1.638,2.251-2.041c0.912-0.342,2.158-0.511,3.741-0.511c4.361-0.086,6.521,1.328,6.479,4.241v3.478
		h-8.787c-3.365,0.043-5.92,0.994-7.663,2.854c-1.743,1.818-2.614,4.115-2.614,6.886c0,2.899,1.004,5.279,3.01,7.142
		c1.906,1.902,4.622,2.876,8.149,2.919c2.148,0,3.83-0.274,5.047-0.825c1.235-0.526,2.147-1.354,2.737-2.476h0.121v2.919h6.338
		V69.966C321.85,65.947,320.645,63.109,318.273,61.46z M315.552,80.884c0,2.478-0.498,4.066-1.493,4.765
		c-1.097,0.698-2.977,1.025-5.637,0.985c-2.113,0-3.626-0.435-4.54-1.306c-0.956-0.781-1.433-1.735-1.433-2.856
		c-0.042-2.562,1.786-3.887,5.485-3.97h7.617V80.884z"/>
	<path style="fill:#444444;" d="M346.727,49.856v13.139c-1.175-1.158-2.4-2.105-3.678-2.842c-1.379-0.693-2.878-1.041-4.499-1.041
		c-3.851,0.104-6.667,1.537-8.449,4.294c-0.872,1.037-1.449,2.403-1.732,4.097c-0.346,1.673-0.518,4.489-0.518,8.45
		c0,3.896,0.172,6.69,0.518,8.384c0.283,1.779,0.86,3.188,1.732,4.225c0.952,1.271,2.137,2.287,3.556,3.051
		c1.357,0.781,2.989,1.194,4.894,1.237c3.364-0.083,6.09-1.356,8.177-3.82v3.438h6.339V49.856H346.727z M346.666,79.532
		c-0.143,1.229-0.416,2.347-0.821,3.343c-0.325,0.999-0.924,1.805-1.795,2.421c-0.873,0.637-2.061,0.956-3.562,0.956
		s-2.647-0.298-3.438-0.893c-0.873-0.615-1.513-1.401-1.917-2.355c-0.387-0.999-0.64-2.125-0.761-3.376
		c-0.122-1.19-0.183-2.411-0.183-3.663c0-1.315,0.061-2.602,0.183-3.854c0.121-1.166,0.374-2.251,0.761-3.247
		c0.404-1,1.044-1.784,1.917-2.359c0.791-0.528,1.938-0.794,3.438-0.794s2.688,0.308,3.562,0.924c0.871,0.615,1.47,1.421,1.795,2.42
		c0.405,0.997,0.679,2.082,0.821,3.248c0.039,1.168,0.061,2.389,0.061,3.662C346.727,77.133,346.705,78.321,346.666,79.532z"/>
</g>
</svg>
